<svg width="16" height="16" viewBox="0 0 16 16" fill="none" xmlns="http://www.w3.org/2000/svg">
    <g clip-path="url(#clip0_301_2)">
        <path d="M15 8C15 11.866 11.866 15 8 15C4.13401 15 1 11.866 1 8C1 4.13401 4.13401 1 8 1C11.866 1 15 4.13401 15 8Z" stroke="#6E6E6E"/>
        <path d="M8.00273 13.14C7.34007 13.14 6.76607 13.014 6.28073 12.762C5.7954 12.51 5.4174 12.1553 5.14673 11.698C4.8854 11.2407 4.75473 10.704 4.75473 10.088V5.692C4.75473 5.076 4.8854 4.53933 5.14673 4.082C5.4174 3.62467 5.7954 3.27 6.28073 3.018C6.76607 2.766 7.34007 2.64 8.00273 2.64C8.67473 2.64 9.24873 2.766 9.72473 3.018C10.2101 3.27 10.5834 3.62467 10.8447 4.082C11.1154 4.53933 11.2507 5.076 11.2507 5.692V10.088C11.2507 10.704 11.1154 11.2407 10.8447 11.698C10.5834 12.1553 10.2101 12.51 9.72473 12.762C9.2394 13.014 8.6654 13.14 8.00273 13.14ZM8.00273 11.628C8.48807 11.628 8.8754 11.488 9.16473 11.208C9.45407 10.928 9.59873 10.5547 9.59873 10.088V5.692C9.59873 5.22533 9.45407 4.852 9.16473 4.572C8.8754 4.292 8.48807 4.152 8.00273 4.152C7.5174 4.152 7.13007 4.292 6.84073 4.572C6.5514 4.852 6.40673 5.22533 6.40673 5.692V10.088C6.40673 10.5547 6.5514 10.928 6.84073 11.208C7.13007 11.488 7.5174 11.628 8.00273 11.628ZM8.00273 8.8C7.73207 8.8 7.50807 8.71133 7.33073 8.534C7.16273 8.35667 7.07873 8.128 7.07873 7.848C7.07873 7.568 7.16273 7.344 7.33073 7.176C7.49873 7.008 7.72273 6.924 8.00273 6.924C8.28273 6.924 8.50673 7.008 8.67473 7.176C8.84273 7.344 8.92673 7.568 8.92673 7.848C8.92673 8.128 8.84273 8.35667 8.67473 8.534C8.50673 8.71133 8.28273 8.8 8.00273 8.8Z" fill="#6E6E6E"/>
    </g>
    <defs>
        <clipPath id="clip0_301_2">
            <rect width="16" height="16" fill="white"/>
        </clipPath>
    </defs>
</svg>
