<svg width="16" height="16" viewBox="0 0 16 16" fill="none" xmlns="http://www.w3.org/2000/svg">
    <g clip-path="url(#clip0_301_2)">
        <path d="M15 8C15 11.866 11.866 15 8 15C4.13401 15 1 11.866 1 8C1 4.13401 4.13401 1 8 1C11.866 1 15 4.13401 15 8Z" stroke="#6E6E6E"/>
        <path d="M4.90873 13V11.306L8.10073 8.1C8.54873 7.64267 8.88007 7.232 9.09473 6.868C9.3094 6.49467 9.41673 6.112 9.41673 5.72C9.41673 5.244 9.28607 4.87533 9.02473 4.614C8.7634 4.34333 8.40873 4.208 7.96073 4.208C7.46607 4.208 7.07873 4.35267 6.79873 4.642C6.51873 4.922 6.37873 5.314 6.37873 5.818H4.62873C4.63807 5.16467 4.77807 4.60467 5.04873 4.138C5.32873 3.662 5.72073 3.29333 6.22473 3.032C6.72873 2.77067 7.31673 2.64 7.98873 2.64C8.63273 2.64 9.19273 2.76133 9.66873 3.004C10.1447 3.24667 10.5134 3.58733 10.7747 4.026C11.0361 4.46467 11.1667 4.98733 11.1667 5.594C11.1667 6.21933 11.0034 6.83067 10.6767 7.428C10.3594 8.016 9.84607 8.65067 9.13673 9.332L7.00873 11.418H11.2927V13H4.90873Z" fill="#6E6E6E"/>
    </g>
    <defs>
        <clipPath id="clip0_301_2">
            <rect width="16" height="16" fill="white"/>
        </clipPath>
    </defs>
</svg>
