<svg width="16" height="16" viewBox="0 0 16 16" fill="none" xmlns="http://www.w3.org/2000/svg">
    <g clip-path="url(#clip0_301_2)">
        <path d="M15 8C15 11.866 11.866 15 8 15C4.13401 15 1 11.866 1 8C1 4.13401 4.13401 1 8 1C11.866 1 15 4.13401 15 8Z" stroke="#6E6E6E"/>
        <path d="M7.90473 13.14C7.24207 13.14 6.6634 13.0187 6.16873 12.776C5.6834 12.5333 5.3054 12.1927 5.03473 11.754C4.76407 11.3153 4.62873 10.7973 4.62873 10.2H6.39273C6.39273 10.6573 6.5234 11.0167 6.78473 11.278C7.0554 11.53 7.4334 11.656 7.91873 11.656C8.40407 11.656 8.7774 11.5253 9.03873 11.264C9.30007 11.0027 9.43073 10.648 9.43073 10.2V9.402C9.43073 8.94467 9.30007 8.59 9.03873 8.338C8.7774 8.07667 8.40407 7.946 7.91873 7.946H6.77073V6.364L9.02473 4.278H5.09073V2.78H10.8027V4.362L7.91873 7.008V6.448C8.92673 6.448 9.72473 6.714 10.3127 7.246C10.9007 7.778 11.1947 8.49667 11.1947 9.402V10.2C11.1947 10.7973 11.0594 11.3153 10.7887 11.754C10.5181 12.1927 10.1354 12.5333 9.64073 12.776C9.14607 13.0187 8.5674 13.14 7.90473 13.14Z" fill="#6E6E6E"/>
    </g>
    <defs>
        <clipPath id="clip0_301_2">
            <rect width="16" height="16" fill="white"/>
        </clipPath>
    </defs>
</svg>
