<svg width="16" height="16" viewBox="0 0 16 16" fill="none" xmlns="http://www.w3.org/2000/svg">
    <g clip-path="url(#clip0_301_2)">
        <path d="M15 8C15 11.866 11.866 15 8 15C4.13401 15 1 11.866 1 8C1 4.13401 4.13401 1 8 1C11.866 1 15 4.13401 15 8Z" stroke="#6E6E6E"/>
        <path d="M7.98873 13.14C7.04607 13.14 6.29007 12.9067 5.72073 12.44C5.1514 11.964 4.83873 11.32 4.78273 10.508H6.53273C6.57007 10.8627 6.71007 11.138 6.95273 11.334C7.20473 11.5207 7.55007 11.614 7.98873 11.614C8.47407 11.614 8.84273 11.488 9.09473 11.236C9.34673 10.9747 9.47273 10.6153 9.47273 10.158V9.164C9.47273 8.69733 9.34673 8.34267 9.09473 8.1C8.84273 7.848 8.47407 7.722 7.98873 7.722C7.69007 7.722 7.4334 7.78267 7.21873 7.904C7.00407 8.02533 6.84073 8.19333 6.72873 8.408H5.02073L5.09073 2.78H10.8447V4.362H6.74273L6.71473 7.33H7.12073L6.70073 7.68C6.70073 7.25067 6.86873 6.91467 7.20473 6.672C7.55007 6.42 8.01207 6.294 8.59073 6.294C9.4214 6.28467 10.0654 6.53667 10.5227 7.05C10.9894 7.554 11.2227 8.25867 11.2227 9.164V10.158C11.2227 11.082 10.9334 11.81 10.3547 12.342C9.7854 12.874 8.99673 13.14 7.98873 13.14Z" fill="#6E6E6E"/>
    </g>
    <defs>
        <clipPath id="clip0_301_2">
            <rect width="16" height="16" fill="white"/>
        </clipPath>
    </defs>
</svg>
