<svg width="16" height="16" viewBox="0 0 16 16" fill="none" xmlns="http://www.w3.org/2000/svg">
    <g clip-path="url(#clip0_301_2)">
        <path d="M15 8C15 11.866 11.866 15 8 15C4.13401 15 1 11.866 1 8C1 4.13401 4.13401 1 8 1C11.866 1 15 4.13401 15 8Z" stroke="#6E6E6E"/>
        <path d="M8.00273 13.14C7.3214 13.14 6.7194 13 6.19673 12.72C5.6834 12.4307 5.28207 12.0293 4.99273 11.516C4.71273 10.9933 4.57273 10.3913 4.57273 9.71C4.57273 9.22467 4.65207 8.716 4.81073 8.184C4.97873 7.652 5.2074 7.15267 5.49673 6.686L7.90473 2.78H9.85073L6.82673 7.54L6.91073 7.596C7.0974 7.30667 7.3494 7.08733 7.66673 6.938C7.98407 6.78867 8.33873 6.714 8.73073 6.714C9.2814 6.714 9.7574 6.84467 10.1587 7.106C10.5601 7.36733 10.8727 7.73133 11.0967 8.198C11.3207 8.66467 11.4327 9.21067 11.4327 9.836C11.4327 10.4987 11.2881 11.0773 10.9987 11.572C10.7187 12.0667 10.3221 12.454 9.80873 12.734C9.30473 13.0047 8.70273 13.14 8.00273 13.14ZM8.00273 11.656C8.51607 11.656 8.9314 11.4927 9.24873 11.166C9.56607 10.83 9.72473 10.396 9.72473 9.864C9.72473 9.31333 9.56607 8.87467 9.24873 8.548C8.9314 8.212 8.51607 8.044 8.00273 8.044C7.4894 8.044 7.07407 8.212 6.75673 8.548C6.4394 8.87467 6.28073 9.31333 6.28073 9.864C6.28073 10.396 6.4394 10.83 6.75673 11.166C7.07407 11.4927 7.4894 11.656 8.00273 11.656Z" fill="#6E6E6E"/>
    </g>
    <defs>
        <clipPath id="clip0_301_2">
            <rect width="16" height="16" fill="white"/>
        </clipPath>
    </defs>
</svg>
