<svg width="16" height="16" viewBox="0 0 16 16" fill="none" xmlns="http://www.w3.org/2000/svg">
    <g clip-path="url(#clip0_301_2)">
        <path d="M15 8C15 11.866 11.866 15 8 15C4.13401 15 1 11.866 1 8C1 4.13401 4.13401 1 8 1C11.866 1 15 4.13401 15 8Z" stroke="#6E6E6E"/>
        <path d="M8.00273 13.14C7.33073 13.14 6.7474 13.028 6.25273 12.804C5.75807 12.5707 5.3754 12.244 5.10473 11.824C4.83407 11.404 4.69873 10.914 4.69873 10.354C4.69873 9.738 4.8714 9.21067 5.21673 8.772C5.56207 8.33333 6.0754 7.96 6.75673 7.652L8.32473 6.938C8.66073 6.77933 8.92207 6.56467 9.10873 6.294C9.30473 6.02333 9.40273 5.72 9.40273 5.384C9.40273 5.00133 9.27673 4.698 9.02473 4.474C8.77273 4.24067 8.43207 4.124 8.00273 4.124C7.5734 4.124 7.22807 4.24067 6.96673 4.474C6.71473 4.70733 6.58873 5.01533 6.58873 5.398C6.58873 5.72467 6.68673 6.02333 6.88273 6.294C7.07873 6.56467 7.34007 6.77467 7.66673 6.924L9.22073 7.638C9.95807 7.96467 10.4901 8.352 10.8167 8.8C11.1434 9.23867 11.3067 9.75667 11.3067 10.354C11.3067 11.2127 11.0081 11.894 10.4107 12.398C9.82273 12.8927 9.02007 13.14 8.00273 13.14ZM8.00273 11.642C8.48807 11.642 8.87073 11.516 9.15073 11.264C9.44007 11.0027 9.58473 10.662 9.58473 10.242C9.58473 9.91533 9.48673 9.60733 9.29073 9.318C9.09473 9.01933 8.82407 8.79067 8.47873 8.632L6.81273 7.862C6.17807 7.56333 5.69273 7.20867 5.35673 6.798C5.03007 6.378 4.86673 5.87867 4.86673 5.3C4.86673 4.77733 4.99273 4.31533 5.24473 3.914C5.49673 3.51267 5.85607 3.2 6.32273 2.976C6.79873 2.752 7.35873 2.64 8.00273 2.64C8.64673 2.64 9.1974 2.752 9.65473 2.976C10.1214 3.2 10.4807 3.51267 10.7327 3.914C10.9941 4.31533 11.1247 4.77733 11.1247 5.3C11.1247 5.888 10.9614 6.38733 10.6347 6.798C10.3081 7.20867 9.8274 7.56333 9.19273 7.862L7.51273 8.646C7.17673 8.79533 6.91073 9.01467 6.71473 9.304C6.51873 9.59333 6.42073 9.90133 6.42073 10.228C6.42073 10.648 6.56073 10.9887 6.84073 11.25C7.13007 11.5113 7.5174 11.642 8.00273 11.642Z" fill="#6E6E6E"/>
    </g>
    <defs>
        <clipPath id="clip0_301_2">
            <rect width="16" height="16" fill="white"/>
        </clipPath>
    </defs>
</svg>
