<svg width="16" height="16" viewBox="0 0 16 16" fill="none" xmlns="http://www.w3.org/2000/svg">
    <g clip-path="url(#clip0_301_2)">
        <path d="M15 8C15 11.866 11.866 15 8 15C4.13401 15 1 11.866 1 8C1 4.13401 4.13401 1 8 1C11.866 1 15 4.13401 15 8Z" stroke="#6E6E6E"/>
        <path d="M6.15473 13L9.17873 8.24L9.09473 8.184C8.90807 8.47333 8.65607 8.69267 8.33873 8.842C8.0214 8.99133 7.66673 9.066 7.27473 9.066C6.7334 9.066 6.2574 8.93533 5.84673 8.674C5.4454 8.41267 5.13273 8.04867 4.90873 7.582C4.68473 7.11533 4.57273 6.56933 4.57273 5.944C4.57273 5.272 4.71273 4.69333 4.99273 4.208C5.28207 3.71333 5.6834 3.33067 6.19673 3.06C6.71007 2.78 7.3074 2.64 7.98873 2.64C8.68873 2.64 9.2954 2.78467 9.80873 3.074C10.3221 3.354 10.7187 3.75067 10.9987 4.264C11.2881 4.77733 11.4327 5.37933 11.4327 6.07C11.4327 6.546 11.3534 7.05467 11.1947 7.596C11.0361 8.128 10.8074 8.62733 10.5087 9.094L8.10073 13H6.15473ZM8.00273 7.736C8.51607 7.736 8.9314 7.57267 9.24873 7.246C9.56607 6.91 9.72473 6.46667 9.72473 5.916C9.72473 5.384 9.56607 4.95467 9.24873 4.628C8.9314 4.292 8.51607 4.124 8.00273 4.124C7.4894 4.124 7.07407 4.292 6.75673 4.628C6.4394 4.95467 6.28073 5.384 6.28073 5.916C6.28073 6.46667 6.4394 6.91 6.75673 7.246C7.07407 7.57267 7.4894 7.736 8.00273 7.736Z" fill="#6E6E6E"/>
    </g>
    <defs>
        <clipPath id="clip0_301_2">
            <rect width="16" height="16" fill="white"/>
        </clipPath>
    </defs>
</svg>
